<?xml version="1.0" encoding="UTF-8" standalone="no"?>
<svg width="28px" height="32px" viewBox="0 0 28 32" version="1.1" xmlns="http://www.w3.org/2000/svg" xmlns:xlink="http://www.w3.org/1999/xlink" xmlns:sketch="http://www.bohemiancoding.com/sketch/ns">
    <!-- Generator: Sketch 3.3.3 (12072) - http://www.bohemiancoding.com/sketch -->
    <title>New Build/build-basictable-32</title>
    <desc>Created with Sketch.</desc>
    <defs></defs>
    <g id="icons" stroke="none" stroke-width="1" fill="none" fill-rule="evenodd" sketch:type="MSPage">
        <g id="New-Build/build-basictable-32" sketch:type="MSArtboardGroup" fill="#C9CDCF">
            <g id="basic-table" sketch:type="MSLayerGroup" transform="translate(0.000000, 6.000000)">
                <path d="M0,18 L0,18 L28,18 L26,20 L26,0 L28,2 L0,2 L2,0 L2,20 L0,18 Z M0,20 L0,20 L0,0 L28,0 L28,20 L0,20 Z" id="Shape" sketch:type="MSShapeGroup"></path>
                <path d="M2,6 L8,6 L8,8 L2,8 L2,6 Z M20,6 L26,6 L26,8 L20,8 L20,6 Z M10,12 L18,12 L18,14 L10,14 L10,12 Z M2,12 L8,12 L8,14 L2,14 L2,12 Z M20,12 L26,12 L26,14 L20,14 L20,12 Z M18,2 L20,2 L20,18 L18,18 L18,2 Z M8,2 L10,2 L10,18 L8,18 L8,2 Z M10,6 L18,6 L18,8 L10,8 L10,6 Z" id="Path-Copy" sketch:type="MSShapeGroup"></path>
            </g>
        </g>
    </g>
</svg>